HIERARCHY
ROOT Hips
{
  OFFSET 3.13124 94.3669 -3.18751
  CHANNELS  6 Xposition Yposition Zposition Zrotation Xrotation Yrotation
  JOINT LeftUpLeg
  {
    OFFSET 8.64259 1.95398 -2.38835
    CHANNELS 3 Zrotation Xrotation Yrotation
    JOINT LeftLeg
    {
      OFFSET 43.7702 0 0
      CHANNELS 3 Zrotation Xrotation Yrotation
      JOINT LeftFoot
      {
        OFFSET 40.6238 0 0
        CHANNELS 3 Zrotation Xrotation Yrotation
        JOINT LeftToeBase
        {
          OFFSET 12.7242 0 0
          CHANNELS 3 Zrotation Xrotation Yrotation
          End Site
          {
            OFFSET 0 0 0
          }
        }
      }
    }
  }
  JOINT RightUpLeg
  {
    OFFSET -8.2249 1.95398 -2.59336
    CHANNELS 3 Zrotation Xrotation Yrotation
    JOINT RightLeg
    {
      OFFSET 43.5653 0 0
      CHANNELS 3 Zrotation Xrotation Yrotation
      JOINT RightFoot
      {
        OFFSET 40.6238 0 0
        CHANNELS 3 Zrotation Xrotation Yrotation
        JOINT RightToeBase
        {
          OFFSET 12.7242 0 0
          CHANNELS 3 Zrotation Xrotation Yrotation
          End Site
          {
            OFFSET 0 0 0
          }
        }
      }
    }
  }
  JOINT Spine
  {
    OFFSET 0.165834 0.87714 6.61349
    CHANNELS 3 Zrotation Xrotation Yrotation
    JOINT Spine1
    {
      OFFSET 7.38962 1.71661e-005 0
      CHANNELS 3 Zrotation Xrotation Yrotation
      JOINT Spine2
      {
        OFFSET 11.9445 1.14441e-005 0
        CHANNELS 3 Zrotation Xrotation Yrotation
        JOINT Spine3
        {
          OFFSET 14.7254 4.19617e-005 0
          CHANNELS 3 Zrotation Xrotation Yrotation
          JOINT Spine4
          {
            OFFSET 10.9679 0 0
            CHANNELS 3 Zrotation Xrotation Yrotation
            JOINT RightShoulder
            {
              OFFSET 2.46616 -1.6653 3.69651
              CHANNELS 3 Zrotation Xrotation Yrotation
              JOINT RightArm
              {
                OFFSET 13.0012 0 0
                CHANNELS 3 Zrotation Xrotation Yrotation
                JOINT RightForeArm
                {
                  OFFSET 28.7848 1.52588e-005 0
                  CHANNELS 3 Zrotation Xrotation Yrotation
                  JOINT RightHand
                  {
                    OFFSET 26.5688 1.52588e-005 0
                    CHANNELS 3 Zrotation Xrotation Yrotation
                    End Site
                    {
                      OFFSET 0 0 0
                    }
                  }
                }
              }
            }
            JOINT LeftShoulder
            {
              OFFSET 2.38034 -1.29275 -3.75231
              CHANNELS 3 Zrotation Xrotation Yrotation
              JOINT LeftArm
              {
                OFFSET 16.3182 6.10352e-005 0
                CHANNELS 3 Zrotation Xrotation Yrotation
                JOINT LeftForeArm
                {
                  OFFSET 27.0901 0 0
                  CHANNELS 3 Zrotation Xrotation Yrotation
                  JOINT LeftHand
                  {
                    OFFSET 24.5451 1.52588e-005 0
                    CHANNELS 3 Zrotation Xrotation Yrotation
                    End Site
                    {
                      OFFSET 0 0 0
                    }
                  }
                }
              }
            }
            JOINT Neck
            {
              OFFSET 5.0226 -0.0266342 0
              CHANNELS 3 Zrotation Xrotation Yrotation
              JOINT Head
              {
                OFFSET 6.69363 2.86102e-005 0
                CHANNELS 3 Zrotation Xrotation Yrotation
                End Site
                {
                  OFFSET 0 0 0
                }
              }
            }
          }
        }
      }
    }
  }
}
MOTION
Frames:	14
Frame Time:	0.0333333
-79.1872 80.459 -126.402 -9.52167 -47.166 -20.265 -172.762 44.8798 120.426 -23.8313 -30.7356 -6.6522 34.6336 -15.4985 -16.1202 28.7808 4.52422e-006 3.17551e-006 -52.0542 85.6333 -41.6136 -66.0276 -3.01277 -0.908204 71.3141 -4.12384 -2.10835 28.7808 1.45925e-005 2.59293e-005 -1.19307 13.0301 -88.9443 0.846009 -2.19473 2.80909 -10.8264 -2.06903 2.9029 -33.3621 -2.93734 2.01982 -13.3495 -2.93734 2.01982 101.156 -3.39199 -85.9106 18.5673 -15.3666 -25.3372 -3.76902 -0.250292 -132.055 -5.37983 -0.32001 -0.0162431 -91.882 -28.5751 69.1779 -13.7318 19.5639 -62.1502 -42.099 32.7094 -120.022 20.0715 -9.0035 -47.2668 16.2954 10.859 10.4999 -20.0605 5.38347 14.3519 
-79.241 81.3836 -125.714 -11.9059 -46.7826 -23.358 -172.01 41.2889 119.089 -20.6312 -34.7174 -6.49428 31.8743 -14.4629 -15.9427 28.7808 4.52422e-006 3.17551e-006 -65.3862 86.8222 -27.8588 -64.0526 -2.84208 -0.85715 70.2127 -4.89026 -2.52133 28.7808 1.45925e-005 2.59293e-005 -0.927599 12.9664 -89.2136 0.972922 -2.07699 2.65173 -10.6993 -1.9583 2.7405 -33.2351 -2.77777 1.90508 -13.2224 -2.77777 1.90507 100.897 -4.1622 -86.7211 19.2572 -15.9079 -23.7212 -3.7665 -0.252155 -131.478 -5.37983 -0.32001 -0.0162431 -92.3355 -28.3832 68.2285 -14.0621 19.9971 -61.3316 -38.0606 29.9558 -120.915 20.5353 -9.44849 -48.3672 13.4278 10.7999 8.63546 -18.7282 5.83023 17.3891 
-79.4006 82.3039 -124.959 -14.6076 -47.0053 -26.2195 -171.245 37.6378 118.369 -17.614 -37.5307 -6.17838 28.7447 -12.9082 -15.2726 28.7808 4.52422e-006 3.17551e-006 -112.411 87.6023 19.7229 -62.2254 -3.01828 -0.830224 69.6223 -5.43039 -2.81707 28.7808 1.45925e-005 2.59293e-005 -0.649439 12.9679 -89.5488 0.966197 -1.89707 2.36032 -10.7056 -1.79137 2.44148 -33.2421 -2.51864 1.68116 -13.2294 -2.51862 1.68116 100.559 -5.30692 -87.7141 20.2514 -15.8744 -21.1664 -3.76652 -0.252129 -131.481 -5.37983 -0.32001 -0.0162431 -93.0439 -28.6002 66.9678 -14.4028 20.4406 -60.6478 -33.8814 26.6976 -121.535 21.4381 -10.0794 -49.4018 11.1079 10.8985 7.75082 -17.9845 6.22516 19.0251 
-79.4674 83.1459 -124.147 -16.6775 -46.7973 -28.8501 -171.024 34.6224 117.456 -14.952 -40.3769 -5.6986 25.8036 -11.0565 -14.0917 28.7808 4.52422e-006 3.17551e-006 -143.112 86.8101 50.6802 -60.6934 -3.12247 -0.807258 69.1123 -6.00422 -3.13456 28.7808 1.45925e-005 2.59293e-005 -0.417392 12.8945 -89.9235 1.11123 -1.83614 2.10536 -10.5602 -1.74173 2.1841 -33.0983 -2.38394 1.45622 -13.0857 -2.38394 1.45621 100.36 -7.11634 -88.0852 20.7495 -16.2402 -20.3279 -3.76294 -0.254664 -130.675 -5.37983 -0.32001 -0.0162431 -93.8088 -28.7042 65.5626 -15.3489 20.6801 -60.0577 -27.7519 21.8453 -121.961 22.9012 -11.1459 -51.0529 8.74033 10.6286 5.58137 -16.7703 6.37646 22.3562 
-79.5888 83.9238 -123.268 -18.8272 -46.7823 -31.3242 -170.92 31.5703 116.698 -12.0801 -42.7155 -4.81015 22.6655 -9.26282 -12.8518 28.7808 4.52422e-006 3.17551e-006 -160.609 85.1628 68.4345 -59.1134 -2.28995 -0.732266 69.3416 -6.37163 -3.31959 28.7808 1.45925e-005 2.59293e-005 -0.193544 12.8253 -90.3719 1.24592 -1.77333 1.74979 -10.4251 -1.69462 1.82612 -32.9653 -2.21719 1.1359 -12.9526 -2.21719 1.13587 100.193 -8.21678 -88.4317 21.3671 -16.3319 -19.135 -3.76029 -0.256474 -130.084 -5.37983 -0.32001 -0.0162431 -94.4879 -28.9219 64.3832 -16.4018 21.1146 -59.7505 -20.4244 15.8473 -121.808 25.12 -12.9477 -53.86 7.63183 10.6485 4.83862 -17.2588 6.31974 23.827 
-79.7532 84.6731 -122.356 -20.4549 -46.8514 -33.5801 -171.296 29.2474 115.668 -9.35231 -42.6913 -2.97278 19.6555 -7.22611 -11.0721 28.7808 4.52422e-006 3.17551e-006 -166.22 83.3819 73.9754 -57.7598 -0.5468 -0.609847 69.4158 -6.58611 -3.43112 28.7808 1.45925e-005 2.59293e-005 -0.125547 12.7207 -90.6845 1.45415 -1.81009 1.39843 -10.2164 -1.74679 1.47673 -32.7593 -2.14666 0.789634 -12.7466 -2.14666 0.78963 100.165 -9.54707 -88.3062 21.8849 -16.26 -18.8256 -3.75417 -0.260564 -128.723 -5.37983 -0.32001 -0.0162431 -95.0683 -28.6989 63.1884 -17.3521 21.5299 -59.3008 -16.1995 12.6878 -121.764 28.2703 -14.1756 -52.9211 6.9173 10.3974 2.751 -17.7301 5.97787 26.9754 
-80.0716 85.3997 -121.408 -22.4429 -47.1282 -35.8704 -171.683 27.4761 114.991 -7.36777 -39.5012 -0.804237 16.3194 -5.20796 -9.13071 28.7808 4.52422e-006 3.17551e-006 -170.707 81.3084 78.5561 -56.6053 -0.950718 -0.612685 69.143 -6.5264 -3.41083 28.7808 1.45925e-005 2.59293e-005 -0.0743598 12.6419 -90.9296 1.60867 -1.76348 1.02597 -10.0616 -1.71662 1.10261 -32.6054 -1.99028 0.44838 -12.5928 -1.99027 0.448378 100.33 -10.8921 -87.6138 22.3406 -16.389 -18.9487 -3.74552 -0.265943 -126.844 -5.37983 -0.32001 -0.0162431 -95.2208 -28.2023 62.6587 -18.3808 22.2345 -59.2368 -11.3272 8.89567 -120.961 31.7667 -15.5899 -52.1844 7.47911 10.2727 0.457818 -19.1791 5.54441 29.6156 
-80.4108 86.0709 -120.397 -23.9721 -47.6146 -37.9254 -172.168 25.7717 113.991 -5.46145 -35.5058 1.28224 12.5889 -3.75863 -7.78537 28.7808 4.52422e-006 3.17551e-006 -172.024 79.1999 79.646 -55.7549 -2.13041 -0.665959 69.0062 -6.82654 -3.56594 28.7808 1.45925e-005 2.59293e-005 -0.0625434 12.5555 -91.171 1.77971 -1.79163 0.644771 -9.89019 -1.7615 0.723005 -32.4352 -1.90256 0.0763056 -12.4226 -1.90256 0.0763045 100.543 -12.3704 -86.8119 22.9328 -16.3253 -18.7683 -3.73652 -0.271203 -124.922 -5.37983 -0.32001 -0.0162431 -95.0279 -27.1213 62.4849 -19.3565 22.8624 -59.1422 -6.08207 4.84417 -119.913 36.195 -17.4061 -51.4204 8.91096 10.3381 -1.73132 -21.5462 5.05209 31.7867 
-80.8389 86.7844 -119.296 -26.1468 -49.1321 -40.466 -172.235 23.4546 112.805 -4.40192 -31.4446 2.53562 10.2761 -2.19861 -5.84658 28.7808 4.52422e-006 3.17551e-006 -173.078 75.9736 80.2437 -55.1479 -2.95976 -0.702376 69.1354 -7.14995 -3.72006 28.7808 1.45925e-005 2.59293e-005 -0.127043 12.572 -91.3935 1.74797 -1.9029 0.256566 -9.92165 -1.88976 0.340094 -32.4678 -1.89201 -0.327401 -12.4551 -1.892 -0.327423 100.757 -13.8379 -86.0618 23.644 -16.0156 -18.9714 -3.72249 -0.278611 -121.995 -5.37983 -0.32001 -0.0162431 -94.5446 -25.9478 62.8225 -20.6628 23.0585 -59.0072 -0.0552897 0.443207 -118.703 41.3866 -19.1115 -49.6707 11.5966 10.5593 -2.97188 -25.5188 4.39758 32.0262 
-81.1589 87.4114 -118.359 -26.7957 -49.5962 -42.1111 -172.523 22.9769 111.208 -4.44164 -26.5571 2.97977 7.02157 -0.828267 -4.1243 28.7808 4.52422e-006 3.17551e-006 -172.51 74.1555 79.0033 -54.256 -3.92581 -0.741196 69.385 -8.15134 -4.21276 28.7808 1.45925e-005 2.59293e-005 -0.152247 12.3876 -91.614 2.11708 -2.07643 -0.0522394 -9.55223 -2.07672 0.0392342 -32.0997 -1.96471 -0.674125 -12.087 -1.9647 -0.674117 101.158 -15.0161 -84.8768 24.3147 -16.0729 -20.0172 -3.70095 -0.288481 -117.634 -5.37983 -0.32001 -0.0162431 -93.7173 -25.0716 64.0053 -21.5148 23.6213 -59.3924 2.63624 -1.31418 -118.347 46.5797 -19.3782 -45.3221 13.7236 10.528 -4.58039 -28.2727 3.79815 32.9195 
-81.484 87.9821 -117.436 -27.9816 -50.6501 -43.9894 -172.401 22.2522 109.806 -5.09803 -21.6664 2.82676 4.62139 0.32374 -2.45545 28.7808 4.52422e-006 3.17551e-006 -172.582 71.7128 78.3977 -53.5267 -4.50819 -0.760396 69.9749 -8.91542 -4.55619 28.7808 1.45925e-005 2.59293e-005 -0.195174 12.2586 -91.8253 2.37643 -2.25987 -0.318702 -9.29256 -2.2717 -0.218877 -31.8411 -2.05957 -0.98342 -11.8284 -2.05957 -0.983415 101.926 -15.8071 -82.7835 24.796 -17.109 -22.3966 -3.66865 -0.29862 -111.362 -5.37983 -0.32001 -0.0162431 -92.8269 -24.2411 65.3755 -21.5323 24.2312 -59.9031 8.08319 -4.84869 -116.332 53.0847 -20.146 -41.5657 16.0154 10.4086 -5.94506 -31.1733 3.14696 33.3066 
-81.838 88.6122 -116.559 -29.5833 -51.7401 -45.8266 -172.276 21.5088 108.798 -5.36584 -16.2023 2.95278 2.98691 0.78095 -1.78296 28.7808 4.52422e-006 3.17551e-006 -173.294 69.0588 78.644 -52.6384 -5.27554 -0.787505 70.1712 -9.68042 -4.92105 28.7808 1.45925e-005 2.59293e-005 -0.248994 12.0976 -92.0068 2.69859 -2.41217 -0.607233 -8.9702 -2.43656 -0.500425 -31.5188 -2.11813 -1.30438 -11.5062 -2.11813 -1.30438 101.873 -17.2623 -82.8931 26.2423 -16.4124 -22.8206 -3.63341 -0.32602 -104.247 -5.37983 -0.32001 -0.0162431 -91.9739 -24.008 66.9952 -21.2648 24.7528 -60.2963 13.1228 -7.6048 -113.807 59.6345 -20.0458 -37.0105 16.5988 10.4994 -6.53162 -32.7601 3.0213 33.0222 
-82.0926 89.2985 -115.628 -30.7732 -52.653 -47.385 -172.366 21.1382 107.908 -5.45723 -13.7333 3.02747 2.69529 0.497487 -2.2943 28.7808 4.52422e-006 3.17551e-006 -173.633 66.5996 78.3405 -51.5424 -5.62027 -0.786429 70.3611 -9.73827 -4.93031 28.7808 1.45925e-005 2.59293e-005 -0.311964 11.8558 -92.1451 3.18266 -2.57448 -0.841953 -8.48593 -2.60904 -0.727789 -31.0348 -2.20241 -1.57703 -11.0222 -2.2024 -1.57703 102.659 -15.8408 -80.845 27.1431 -19.7723 -25.9171 -3.57391 -0.25472 -94.0398 -5.37983 -0.32001 -0.0162431 -91.2853 -24.2659 68.5193 -21.1823 25.1911 -60.21 16.8799 -9.42148 -112.029 65.3797 -18.863 -32.0483 15.0825 10.4466 -7.4888 -31.8205 3.1372 34.104 
-82.2486 89.9998 -114.726 -32.0382 -53.452 -48.9139 -172.692 20.9681 107.078 -5.39982 -10.1932 3.60151 1.84057 -0.431145 -4.00462 28.7808 4.52422e-006 3.17551e-006 -173.972 64.2144 78.0005 -50.3096 -6.25736 -0.801047 70.2762 -9.81271 -4.96981 28.7808 1.45925e-005 2.59293e-005 -0.296866 11.5969 -92.3547 3.70046 -2.69801 -1.02399 -7.96799 -2.74048 -0.904173 -30.5169 -2.26553 -1.78776 -10.5042 -2.26553 -1.78777 102.072 -16.8615 -82.3855 29.359 -18.7023 -24.6737 -3.52847 -0.357804 -85.6109 -5.37983 -0.32001 -0.0162431 -90.5373 -24.8752 70.3089 -16.9064 24.856 -59.8359 20.1337 -11.2942 -109.748 73.0119 -16.5251 -25.535 13.5848 10.6155 -8.92444 -31.3935 3.34334 35.4715 
